<?xml version="1.0" ?><!DOCTYPE svg  PUBLIC '-//W3C//DTD SVG 1.0//EN'  'http://www.w3.org/TR/2001/REC-SVG-20010904/DTD/svg10.dtd'><svg id="Layer_1" style="enable-background:new 0 0 100 100;" version="1.0" viewBox="0 0 100 100" xml:space="preserve" xmlns="http://www.w3.org/2000/svg" xmlns:xlink="http://www.w3.org/1999/xlink"><style type="text/css">
	.st0{fill:none;}
</style><g><g><path d="M28.87,65.58l4.83,14.37H19.37l4.82-14.29c0.36-0.92,0.75-2,1.15-3.24c0.41-1.25,0.81-2.61,1.19-4.07     c0.41,1.44,0.82,2.78,1.24,4.01C28.19,63.6,28.56,64.67,28.87,65.58z"/><path class="st0" d="M26.56,61.89c0.09,0.27,0.18,0.53,0.26,0.79c0.26,0.77,0.5,1.47,0.72,2.11l0.38,1.11l4.39,13.05H20.76     l4.36-12.93c0.4-1.03,0.8-2.14,1.17-3.29C26.38,62.46,26.47,62.17,26.56,61.89 M26.53,58.35c-0.38,1.46-0.78,2.82-1.19,4.07     c-0.4,1.24-0.79,2.32-1.15,3.24l-4.82,14.29H33.7l-4.83-14.37c-0.31-0.91-0.68-1.98-1.1-3.22     C27.35,61.13,26.94,59.79,26.53,58.35L26.53,58.35z"/></g><g><path d="M41.02,99.26c0.69,0.49,1.56,0.74,2.61,0.74H10c-0.1,0-0.2,0-0.29-0.01c0.92-0.03,1.7-0.3,2.35-0.8     c0.7-0.54,1.16-1.15,1.4-1.82l3.1-9.14H36.5l3.1,9.14C39.86,98.14,40.34,98.77,41.02,99.26z"/><path class="st0" d="M35.78,89.23l2.87,8.46c0.16,0.48,0.39,0.91,0.68,1.31H13.68c0.32-0.4,0.56-0.84,0.73-1.31l2.87-8.46H35.78      M36.5,88.23H16.56l-3.1,9.14c-0.24,0.67-0.7,1.28-1.4,1.82c-0.65,0.5-1.43,0.77-2.35,0.8C9.8,100,9.9,100,10,100h33.63     c-1.05,0-1.92-0.25-2.61-0.74c-0.68-0.49-1.16-1.12-1.42-1.89L36.5,88.23L36.5,88.23z"/></g><g><path d="M90,0H10C4.48,0,0,4.48,0,10v80c0,2.07,0.63,3.99,1.71,5.59L20.3,47.55h12.46L53.06,100h4.61V62.67h11.16V100H90     c5.52,0,10-4.48,10-10V10C100,4.48,95.52,0,90,0z M69.59,54.95c-0.36,0.78-0.85,1.46-1.48,2.05c-0.62,0.59-1.35,1.05-2.18,1.4     c-0.82,0.35-1.71,0.52-2.64,0.52c-0.91,0-1.77-0.17-2.56-0.52c-0.79-0.35-1.49-0.81-2.1-1.4c-0.62-0.59-1.1-1.27-1.44-2.05     c-0.35-0.78-0.53-1.62-0.53-2.51c0-0.91,0.18-1.76,0.53-2.55c0.34-0.79,0.82-1.49,1.44-2.09c0.61-0.6,1.31-1.07,2.1-1.4     c0.79-0.34,1.65-0.51,2.56-0.51c0.93,0,1.82,0.17,2.64,0.51c0.83,0.33,1.56,0.8,2.18,1.4c0.63,0.6,1.12,1.3,1.48,2.09     c0.36,0.79,0.54,1.64,0.54,2.55C70.13,53.33,69.95,54.17,69.59,54.95z"/><path class="st0" d="M90,1c4.96,0,9,4.04,9,9v80c0,4.96-4.04,9-9,9H69.83V62.67v-1h-1H57.67h-1v1V99h-2.92L33.69,47.19     l-0.25-0.64h-0.69H20.3h-0.69l-0.25,0.64L1.58,93.17C1.2,92.16,1,91.09,1,90V10c0-4.96,4.04-9,9-9H90 M63.29,59.92     c1.08,0,2.1-0.2,3.03-0.6c0.96-0.4,1.79-0.94,2.48-1.59c0.72-0.67,1.29-1.47,1.7-2.36c0.42-0.91,0.63-1.89,0.63-2.93     c0-1.05-0.21-2.05-0.63-2.96c-0.42-0.91-0.99-1.72-1.69-2.39c-0.71-0.69-1.56-1.23-2.49-1.61c-0.94-0.39-1.96-0.59-3.02-0.59     c-1.05,0-2.04,0.2-2.95,0.59c-0.9,0.38-1.71,0.92-2.41,1.6c-0.71,0.69-1.27,1.5-1.66,2.4c-0.41,0.92-0.62,1.92-0.62,2.96     c0,1.02,0.21,2.01,0.61,2.91c0.39,0.89,0.95,1.69,1.66,2.37c0.68,0.66,1.48,1.19,2.39,1.6C61.23,59.72,62.23,59.92,63.29,59.92      M90,0H10C4.48,0,0,4.48,0,10v80c0,2.07,0.63,3.99,1.71,5.59L20.3,47.55h12.46L53.06,100h4.61V62.67h11.16V100H90     c5.52,0,10-4.48,10-10V10C100,4.48,95.52,0,90,0L90,0z M63.29,58.92c-0.91,0-1.77-0.17-2.56-0.52c-0.79-0.35-1.49-0.81-2.1-1.4     c-0.62-0.59-1.1-1.27-1.44-2.05c-0.35-0.78-0.53-1.62-0.53-2.51c0-0.91,0.18-1.76,0.53-2.55c0.34-0.79,0.82-1.49,1.44-2.09     c0.61-0.6,1.31-1.07,2.1-1.4c0.79-0.34,1.65-0.51,2.56-0.51c0.93,0,1.82,0.17,2.64,0.51c0.83,0.33,1.56,0.8,2.18,1.4     c0.63,0.6,1.12,1.3,1.48,2.09c0.36,0.79,0.54,1.64,0.54,2.55c0,0.89-0.18,1.73-0.54,2.51c-0.36,0.78-0.85,1.46-1.48,2.05     c-0.62,0.59-1.35,1.05-2.18,1.4C65.11,58.75,64.22,58.92,63.29,58.92L63.29,58.92z"/></g></g></svg>