<?xml version="1.0" ?><svg id="Product_exchange_money" viewBox="0 0 64 64" xmlns="http://www.w3.org/2000/svg"><path d="M56.1968,32.6046H49.5535l4.54,7.4544h8.168a2.882,2.882,0,0,0-.356-.8169L58.4724,33.853A2.6981,2.6981,0,0,0,56.1968,32.6046Z"/><path d="M46.6265,32.6046H41.7439L38.2815,40.059h7.51a1.25,1.25,0,0,1,0,2.5h-7.717l5.8762,17.2136a.9565.9565,0,0,0,1.81,0l6.2576-18.3147Z"/><path d="M49.3259,56.9731,61.7185,42.5987c.01-.0126.0173-.027.0273-.04H54.2829Z"/><path d="M31.31,33.853l-3.4333,5.3891a2.882,2.882,0,0,0-.356.8169h8.0044l3.4622-7.4544H33.5854A2.6981,2.6981,0,0,0,31.31,33.853Z"/><path d="M28.0366,42.559c.01.0127.0169.0271.0271.04l12.314,14.3439L35.4314,42.559Z"/><path d="M38.5749,9.9594h8.9639A4.4066,4.4066,0,0,1,51.94,14.3608v5.8843l-1.5547-1.3833a1.75,1.75,0,0,0-2.3262,2.6152l4.4678,3.9756a1.75,1.75,0,0,0,2.3262,0L59.321,21.477a1.75,1.75,0,1,0-2.3261-2.6152L55.44,20.2451V14.3608a7.9108,7.9108,0,0,0-7.9014-7.9014H38.5749a1.75,1.75,0,1,0,0,3.5Z"/><path d="M17.8288,33.2779A15.4873,15.4873,0,1,0,2.3415,17.7906,15.4873,15.4873,0,0,0,17.8288,33.2779Zm1.1846-13.9308H16.6a4.3067,4.3067,0,0,1-.247-8.6069V8.7377a1.35,1.35,0,1,1,2.6992,0v1.9776h2.9717a1.35,1.35,0,0,1,0,2.6992H16.6a1.6167,1.6167,0,1,0,0,3.2334h2.4131a4.1075,4.1075,0,0,1,.0391,8.2148v1.98a1.35,1.35,0,1,1-2.6992,0V24.8666h-2.72a1.35,1.35,0,0,1,0-2.6992h5.38a1.41,1.41,0,1,0,0-2.82Z"/><path d="M25.9177,56.6713H16.9538A4.4065,4.4065,0,0,1,12.5525,52.27V46.4008l1.5547,1.3838a1.75,1.75,0,1,0,2.3261-2.6152l-4.4677-3.9766a1.7494,1.7494,0,0,0-2.3272.001L5.1716,45.17A1.75,1.75,0,1,0,7.5,47.7836l1.5528-1.3823V52.27a7.9108,7.9108,0,0,0,7.9013,7.9013h8.9639a1.75,1.75,0,0,0,0-3.5Z"/></svg>