<?xml version="1.0" ?><svg id="Layer_1" style="enable-background:new 0 0 512 512;" version="1.1" viewBox="0 0 512 512" xml:space="preserve" xmlns="http://www.w3.org/2000/svg" xmlns:xlink="http://www.w3.org/1999/xlink"><style type="text/css">
	.st0{fill:#141D23;}
	.st1{fill:#FFFFFF;}
	.st2{fill:#24323D;}
	.st3{fill:#475563;}
	.st4{fill:#070C0F;}
</style><g><g><path class="st0" d="M431.8,506H80.2c-4.9,0-9-4-9-9V15c0-4.9,4-9,9-9h351.5c4.9,0,9,4,9,9V497    C440.7,502,436.7,506,431.8,506z" id="XMLID_14_"/><rect class="st1" height="471.2" id="XMLID_13_" width="340.7" x="85.7" y="20.4"/><g><g id="XMLID_171_"><g id="XMLID_186_"><rect class="st0" height="11.2" id="XMLID_187_" width="244.2" x="133.9" y="86.2"/></g><g id="XMLID_184_"><rect class="st0" height="11.2" id="XMLID_185_" width="244.2" x="133.9" y="109.4"/></g><g id="XMLID_182_"><rect class="st0" height="11.2" id="XMLID_183_" width="244.2" x="133.9" y="132.5"/></g><g id="XMLID_180_"><rect class="st0" height="11.2" id="XMLID_181_" width="244.2" x="133.9" y="155.6"/></g><g id="XMLID_178_"><rect class="st0" height="11.2" id="XMLID_179_" width="244.2" x="133.9" y="178.8"/></g><g id="XMLID_176_"><rect class="st0" height="11.2" id="XMLID_177_" width="244.2" x="133.9" y="201.9"/></g><g id="XMLID_174_"><rect class="st0" height="11.2" id="XMLID_175_" width="244.2" x="133.9" y="225.1"/></g><g id="XMLID_172_"><rect class="st0" height="11.2" id="XMLID_173_" width="180.4" x="133.9" y="248.2"/></g></g></g><polygon class="st2" id="XMLID_4_" points="274,156 274,6 397.4,6 397.4,156 335.7,119.8   "/><polygon class="st0" id="XMLID_3_" points="356,321.4 85.7,321.4 85.7,447.6 356,447.6 313.3,384.5   "/><polygon class="st3" id="XMLID_2_" points="332.4,333.8 85.7,333.8 85.7,435.3 332.4,435.3 298,384.6   "/><polygon class="st4" id="XMLID_1_" points="258.1,20.4 274,20.4 274,6   "/></g><g id="XMLID_724_"><g id="XMLID_88_"><path class="st1" d="M208.3,401.9h-23l-5,15.2h-11.2l22.7-65h10.3l22.4,65h-11.2L208.3,401.9z M188.3,392.8h17.1     l-8.3-25.6h-0.3L188.3,392.8z" id="XMLID_91_"/><path class="st1" d="M247,417.1h-10.8v-65H247V417.1z" id="XMLID_89_"/></g></g></g></svg>