<?xml version="1.0" ?><!DOCTYPE svg  PUBLIC '-//W3C//DTD SVG 1.1//EN'  'http://www.w3.org/Graphics/SVG/1.1/DTD/svg11.dtd'><svg height="100%" style="fill-rule:evenodd;clip-rule:evenodd;stroke-linejoin:round;stroke-miterlimit:2;" version="1.1" viewBox="0 0 64 64" width="100%" xml:space="preserve" xmlns="http://www.w3.org/2000/svg" xmlns:serif="http://www.serif.com/" xmlns:xlink="http://www.w3.org/1999/xlink"><g id="Expanded"><path d="M3,20l0,40c0,0.552 0.448,1 1,1l56,0c0.552,0 1,-0.448 1,-1l0,-40c0,-0.359 -0.192,-0.69 -0.504,-0.868l-7.496,-4.284c0,0 0,-10.848 0,-10.848c0,-0.552 -0.448,-1 -1,-1l-8,-0c-0.552,0 -1,0.448 -1,1l0,5.134l-10.504,-6.002c-0.307,-0.176 -0.685,-0.176 -0.992,-0l-28,16c-0.312,0.178 -0.504,0.509 -0.504,0.868Zm56,4.277l-0,-3.697l-7.496,-4.283c-0.312,-0.178 -0.504,-0.51 -0.504,-0.868c0,-0 0,-10.429 -0,-10.429c-0,0 -6,0 -6,-0l0,5.277l0.996,0.569c0.479,0.274 0.646,0.885 0.372,1.364c-0.274,0.48 -0.885,0.646 -1.364,0.373l-13.004,-7.431c-0,-0 -27,15.428 -27,15.428l-0,3.697l26.504,-15.145c0.307,-0.176 0.685,-0.176 0.992,-0l26.504,15.145Zm-28,-3.948l0,3.671l-8,-0c-0.552,0 -1,0.448 -1,1l0,4.5l-3.171,0c-0.412,-1.165 -1.524,-2 -2.829,-2c-1.656,0 -3,1.344 -3,3c-0,1.656 1.344,3 3,3c1.305,0 2.417,-0.835 2.829,-2l3.171,0l0,5l-11,0c-0.552,-0 -1,0.448 -1,1c-0,0.552 0.448,1 1,1l0.851,0c0.046,0.514 0.119,1.022 0.189,1.553c0.058,0.44 0.399,0.789 0.837,0.858l2.284,0.357c0.095,0.415 0.205,0.826 0.33,1.233c0,-0.001 -1.799,1.451 -1.799,1.451c-0.345,0.279 -0.466,0.751 -0.296,1.161c0.671,1.62 1.551,3.145 2.619,4.536c0.27,0.352 0.74,0.484 1.153,0.325l2.157,-0.833c0.289,0.312 0.59,0.613 0.902,0.902c0,0 -0.832,2.157 -0.832,2.157c-0.16,0.414 -0.028,0.883 0.324,1.153c1.391,1.068 2.916,1.949 4.536,2.62c0.41,0.169 0.883,0.049 1.161,-0.296l1.452,-1.8c0.406,0.126 0.817,0.236 1.232,0.331c0,-0.001 0.358,2.284 0.358,2.284c0.068,0.438 0.417,0.778 0.857,0.836c1.739,0.229 3.5,0.229 5.238,0c0.44,-0.058 0.789,-0.398 0.858,-0.836l0.357,-2.285c0.415,-0.094 0.826,-0.204 1.233,-0.33c-0.001,0 1.451,1.8 1.451,1.8c0.279,0.345 0.751,0.465 1.161,0.296c1.62,-0.671 3.145,-1.552 4.536,-2.62c0.352,-0.27 0.484,-0.739 0.325,-1.153l-0.833,-2.157c0.312,-0.289 0.613,-0.59 0.902,-0.902c0,0 2.157,0.833 2.157,0.833c0.414,0.159 0.883,0.027 1.153,-0.325c1.068,-1.391 1.949,-2.916 2.62,-4.536c0.169,-0.41 0.049,-0.882 -0.296,-1.161l-1.8,-1.452c0.126,-0.406 0.236,-0.817 0.331,-1.232c-0.001,0 2.284,-0.357 2.284,-0.357c0.438,-0.069 0.778,-0.418 0.836,-0.858c0.07,-0.531 0.119,-1.039 0.146,-1.553l1.026,-0c0.552,-0 1,-0.448 1,-1c-0,-0.552 -0.448,-1 -1,-1l-11,-0l0,-5l3.171,-0c0.412,1.165 1.524,2 2.829,2c1.656,0 3,-1.344 3,-3c-0,-1.656 -1.344,-3 -3,-3c-1.305,0 -2.417,0.835 -2.829,2l-3.171,-0l0,-4.5c0,-0.552 -0.448,-1 -1,-1l-8,-0l0,-3.671c1.165,-0.412 2,-1.524 2,-2.829c0,-1.656 -1.344,-3 -3,-3c-1.656,-0 -3,1.344 -3,3c0,1.305 0.835,2.417 2,2.829Zm-10.574,18.171c0.514,5.866 5.506,10.42 11.508,10.42c6.002,0 10.932,-4.549 11.443,-10.413c1.625,-0.002 4.918,-0.005 6.594,-0.006l-0.042,0.552c-0,-0 -2.215,0.347 -2.215,0.347c-0.419,0.065 -0.751,0.388 -0.828,0.805c-0.146,0.784 -0.352,1.554 -0.618,2.305c-0.142,0.4 -0.016,0.846 0.315,1.112l1.743,1.407c-0.455,0.981 -0.996,1.919 -1.619,2.804c0,-0 -2.09,-0.807 -2.09,-0.807c-0.395,-0.153 -0.845,-0.039 -1.12,0.284c-0.517,0.605 -1.082,1.17 -1.687,1.687c-0.323,0.275 -0.437,0.725 -0.284,1.12l0.807,2.09c-0.885,0.623 -1.823,1.164 -2.804,1.619c-0,0 -1.407,-1.743 -1.407,-1.743c-0.266,-0.331 -0.712,-0.457 -1.112,-0.315c-0.751,0.266 -1.521,0.472 -2.305,0.618c-0.417,0.077 -0.74,0.409 -0.805,0.828l-0.347,2.213c-1.077,0.097 -2.161,0.097 -3.237,0c-0.001,0 -0.347,-2.213 -0.347,-2.213c-0.066,-0.419 -0.389,-0.751 -0.806,-0.828c-0.783,-0.146 -1.554,-0.352 -2.305,-0.618c-0.4,-0.142 -0.845,-0.016 -1.112,0.315l-1.406,1.743c-0.982,-0.455 -1.92,-0.996 -2.804,-1.619c-0,0 0.806,-2.09 0.806,-2.09c0.153,-0.395 0.039,-0.845 -0.283,-1.12c-0.606,-0.517 -1.17,-1.082 -1.687,-1.687c-0.276,-0.323 -0.725,-0.437 -1.121,-0.284l-2.09,0.807c-0.622,-0.885 -1.164,-1.823 -1.619,-2.804c0,-0 1.744,-1.407 1.744,-1.407c0.33,-0.266 0.456,-0.712 0.314,-1.112c-0.265,-0.751 -0.472,-1.521 -0.617,-2.305c-0.077,-0.417 -0.41,-0.74 -0.829,-0.805l-2.231,-0.35c-0.024,-0.184 -0.046,-0.367 -0.065,-0.55l6.568,-0Zm20.942,-0l-18.933,-0c0.509,4.759 4.602,8.42 9.499,8.42c4.896,0 8.933,-3.663 9.434,-8.42Zm-1.368,-7.998l0,-4.502c0,-0 -16,-0 -16,0l0,10.5l2,-0l0,-7.5c-0,-0.552 0.448,-1 1,-1l10,-0c0.552,-0 1,0.448 1,1l0,7.5l2,-0l0,-5.998Zm-4,-0.502l0,6.5c0,0 -8,-0 -8,-0c0,-0 0,-6.5 0,-6.5l8,0Zm-20,-0.5c0.552,0 1,0.448 1,1c-0,0.552 -0.448,1 -1,1c-0.552,-0 -1,-0.448 -1,-1c-0,-0.552 0.448,-1 1,-1Zm32,0c0.552,0 1,0.448 1,1c-0,0.552 -0.448,1 -1,1c-0.552,-0 -1,-0.448 -1,-1c-0,-0.552 0.448,-1 1,-1Zm-17,-12c0,-0.552 0.448,-1 1,-1c0.552,-0 1,0.448 1,1c0,0.552 -0.448,1 -1,1c-0.552,-0 -1,-0.448 -1,-1Z"/></g></svg>